<svg xmlns="http://www.w3.org/2000/svg" viewBox="0 0 800 1000" preserveAspectRatio="xMidYMid slice"><defs><linearGradient id="sky" x1="0" y1="0" x2="0" y2="1"><stop offset="0" stop-color="#c9d5c0"/><stop offset="0.55" stop-color="#ecdfb9"/><stop offset="1" stop-color="#f6dfae"/></linearGradient><radialGradient id="glow"><stop offset="0" stop-color="#f8dc9a" stop-opacity="0.6"/><stop offset="1" stop-color="#f8dc9a" stop-opacity="0"/></radialGradient><linearGradient id="sea" x1="0" y1="0" x2="0" y2="1"><stop offset="0" stop-color="#e6d6a6"/><stop offset="0.4" stop-color="#7fa38a"/><stop offset="1" stop-color="#24483f"/></linearGradient></defs><rect width="800" height="1000" fill="url(#sky)"/><circle cx="560" cy="520" r="224.0" fill="url(#glow)"/><circle cx="560" cy="520" r="70" fill="#e8b866"/><path d="M0,1000 L0,697.7 L10,698.1 L20,698.3 L30,698.4 L40,698.3 L50,698.0 L60,697.4 L70,696.7 L80,695.7 L90,694.6 L100,693.2 L110,691.8 L120,690.2 L130,688.6 L140,686.9 L150,685.3 L160,683.8 L170,682.3 L180,681.0 L190,679.8 L200,678.9 L210,678.2 L220,677.7 L230,677.5 L240,677.5 L250,677.8 L260,678.3 L270,679.1 L280,680.0 L290,681.1 L300,682.2 L310,683.5 L320,684.8 L330,686.1 L340,687.4 L350,688.5 L360,689.6 L370,690.6 L380,691.4 L390,692.0 L400,692.4 L410,692.7 L420,692.9 L430,692.9 L440,692.7 L450,692.5 L460,692.1 L470,691.8 L480,691.4 L490,691.1 L500,690.8 L510,690.6 L520,690.5 L530,690.5 L540,690.7 L550,691.0 L560,691.4 L570,692.0 L580,692.8 L590,693.6 L600,694.5 L610,695.5 L620,696.4 L630,697.4 L640,698.3 L650,699.1 L660,699.8 L670,700.3 L680,700.7 L690,700.8 L700,700.7 L710,700.3 L720,699.8 L730,699.0 L740,697.9 L750,696.7 L760,695.3 L770,693.8 L780,692.2 L790,690.5 L800,688.8 L810,687.1 L800,1000 Z" fill="#b9c9b0" opacity="0.6"/><rect y="640" width="800" height="360" fill="url(#sea)"/><rect x="541" y="650" width="38" height="3.5" rx="2" fill="#e8b866" opacity="0.75"/><rect x="527" y="668" width="67" height="3.5" rx="2" fill="#e8b866" opacity="0.71"/><rect x="536" y="686" width="49" height="3.5" rx="2" fill="#e8b866" opacity="0.68"/><rect x="541" y="704" width="38" height="3.5" rx="2" fill="#e8b866" opacity="0.64"/><rect x="517" y="721" width="87" height="3.5" rx="2" fill="#e8b866" opacity="0.61"/><rect x="506" y="739" width="107" height="3.5" rx="2" fill="#e8b866" opacity="0.57"/><rect x="529" y="757" width="62" height="3.5" rx="2" fill="#e8b866" opacity="0.54"/><rect x="525" y="775" width="71" height="3.5" rx="2" fill="#e8b866" opacity="0.50"/><rect x="489" y="793" width="143" height="3.5" rx="2" fill="#e8b866" opacity="0.46"/><rect x="494" y="811" width="132" height="3.5" rx="2" fill="#e8b866" opacity="0.43"/><rect x="524" y="829" width="71" height="3.5" rx="2" fill="#e8b866" opacity="0.39"/><rect x="500" y="846" width="121" height="3.5" rx="2" fill="#e8b866" opacity="0.36"/><rect x="462" y="864" width="196" height="3.5" rx="2" fill="#e8b866" opacity="0.32"/><rect x="491" y="882" width="139" height="3.5" rx="2" fill="#e8b866" opacity="0.29"/><rect x="0" y="640" width="430" height="5" fill="#17332c"/><rect x="4" y="640" width="2.6" height="23" fill="#17332c"/><rect x="21" y="640" width="2.6" height="23" fill="#17332c"/><rect x="38" y="640" width="2.6" height="23" fill="#17332c"/><rect x="54" y="640" width="2.6" height="23" fill="#17332c"/><rect x="71" y="640" width="2.6" height="23" fill="#17332c"/><rect x="88" y="640" width="2.6" height="23" fill="#17332c"/><rect x="105" y="640" width="2.6" height="23" fill="#17332c"/><rect x="122" y="640" width="2.6" height="23" fill="#17332c"/><rect x="138" y="640" width="2.6" height="23" fill="#17332c"/><rect x="155" y="640" width="2.6" height="23" fill="#17332c"/><rect x="172" y="640" width="2.6" height="23" fill="#17332c"/><rect x="189" y="640" width="2.6" height="23" fill="#17332c"/><rect x="206" y="640" width="2.6" height="23" fill="#17332c"/><rect x="222" y="640" width="2.6" height="23" fill="#17332c"/><rect x="239" y="640" width="2.6" height="23" fill="#17332c"/><rect x="256" y="640" width="2.6" height="23" fill="#17332c"/><rect x="273" y="640" width="2.6" height="23" fill="#17332c"/><rect x="290" y="640" width="2.6" height="23" fill="#17332c"/><rect x="306" y="640" width="2.6" height="23" fill="#17332c"/><rect x="323" y="640" width="2.6" height="23" fill="#17332c"/><rect x="340" y="640" width="2.6" height="23" fill="#17332c"/><rect x="357" y="640" width="2.6" height="23" fill="#17332c"/><rect x="374" y="640" width="2.6" height="23" fill="#17332c"/><rect x="390" y="640" width="2.6" height="23" fill="#17332c"/><rect x="407" y="640" width="2.6" height="23" fill="#17332c"/><circle cx="310" cy="575" r="55" fill="none" stroke="#17332c" stroke-width="2.1"/><line x1="310" y1="575" x2="364" y2="575" stroke="#17332c" stroke-width="1.3"/><circle cx="364" cy="575" r="3.2" fill="#17332c"/><line x1="310" y1="575" x2="357" y2="602" stroke="#17332c" stroke-width="1.3"/><circle cx="357" cy="602" r="3.2" fill="#17332c"/><line x1="310" y1="575" x2="337" y2="622" stroke="#17332c" stroke-width="1.3"/><circle cx="337" cy="622" r="3.2" fill="#17332c"/><line x1="310" y1="575" x2="310" y2="630" stroke="#17332c" stroke-width="1.3"/><circle cx="310" cy="630" r="3.2" fill="#17332c"/><line x1="310" y1="575" x2="282" y2="622" stroke="#17332c" stroke-width="1.3"/><circle cx="282" cy="622" r="3.2" fill="#17332c"/><line x1="310" y1="575" x2="262" y2="602" stroke="#17332c" stroke-width="1.3"/><circle cx="262" cy="602" r="3.2" fill="#17332c"/><line x1="310" y1="575" x2="255" y2="575" stroke="#17332c" stroke-width="1.3"/><circle cx="255" cy="575" r="3.2" fill="#17332c"/><line x1="310" y1="575" x2="262" y2="548" stroke="#17332c" stroke-width="1.3"/><circle cx="262" cy="548" r="3.2" fill="#17332c"/><line x1="310" y1="575" x2="282" y2="528" stroke="#17332c" stroke-width="1.3"/><circle cx="282" cy="528" r="3.2" fill="#17332c"/><line x1="310" y1="575" x2="310" y2="520" stroke="#17332c" stroke-width="1.3"/><circle cx="310" cy="520" r="3.2" fill="#17332c"/><line x1="310" y1="575" x2="337" y2="528" stroke="#17332c" stroke-width="1.3"/><circle cx="337" cy="528" r="3.2" fill="#17332c"/><line x1="310" y1="575" x2="357" y2="548" stroke="#17332c" stroke-width="1.3"/><circle cx="357" cy="548" r="3.2" fill="#17332c"/><path d="M286,640 L310,575 L333,640" fill="none" stroke="#17332c" stroke-width="2.1"/><rect x="77" y="619" width="42" height="21" fill="#17332c"/><rect x="129" y="627" width="27" height="13" fill="#17332c"/><path d="M690,1000 Q678.0,692.0 630,440" stroke="#12211d" stroke-width="19.6" fill="none" stroke-linecap="round"/><path d="M630,440 Q524.8719855710125,372.28112495020844 450,455 Q538.8719855710125,388.28112495020844 630,440 Z" fill="#12211d"/><path d="M630,440 Q538.6813934066073,337.93967146037596 475,395 Q552.6813934066073,353.93967146037596 630,440 Z" fill="#12211d"/><path d="M630,440 Q546.56001832096,309.87676663877005 489,357 Q560.56001832096,325.87676663877005 630,440 Z" fill="#12211d"/><path d="M630,440 Q599.0351187997748,259.73518290959527 585,287 Q613.0351187997748,275.73518290959527 630,440 Z" fill="#12211d"/><path d="M630,440 Q631.9993931922644,290.7789090507054 645,313 Q645.9993931922644,306.7789090507054 630,440 Z" fill="#12211d"/><path d="M630,440 Q658.3027617320736,292.80858568722135 692,319 Q672.3027617320736,308.80858568722135 630,440 Z" fill="#12211d"/><path d="M630,440 Q675.1988286178506,310.7119967137594 723,343 Q689.1988286178506,326.7119967137594 630,440 Z" fill="#12211d"/><path d="M630,440 Q726.852074662702,295.8205832894434 817,359 Q740.852074662702,311.8205832894434 630,440 Z" fill="#12211d"/><path d="M630,440 Q752.9561950316524,356.4398028543273 864,463 Q766.9561950316524,372.4398028543273 630,440 Z" fill="#12211d"/><path d="M770,1000 Q764.0,791.0 740,620" stroke="#17332c" stroke-width="13.3" fill="none" stroke-linecap="round"/><path d="M740,620 Q660.6180087358664,562.6835997268278 607,623 Q674.6180087358664,578.6835997268278 740,620 Z" fill="#17332c"/><path d="M740,620 Q657.7287786215267,531.94756569728 601,584 Q671.7287786215267,547.94756569728 740,620 Z" fill="#17332c"/><path d="M740,620 Q683.8829354253994,522.9122907342494 649,555 Q697.8829354253994,538.9122907342494 740,620 Z" fill="#17332c"/><path d="M740,620 Q729.6192470022636,522.2321951852915 732,538 Q743.6192470022636,538.2321951852915 740,620 Z" fill="#17332c"/><path d="M740,620 Q750.0124862319118,502.8070381585422 769,522 Q764.0124862319118,518.8070381585421 740,620 Z" fill="#17332c"/><path d="M740,620 Q764.0317961019691,516.5281488345375 795,539 Q778.0317961019691,532.5281488345375 740,620 Z" fill="#17332c"/><path d="M740,620 Q798.1901001991745,539.860348416783 857,584 Q812.1901001991745,555.860348416783 740,620 Z" fill="#17332c"/><path d="M740,620 Q802.5706141769294,570.4269939035454 865,629 Q816.5706141769294,586.4269939035454 740,620 Z" fill="#17332c"/></svg>